<?xml version="1.0" standalone="no"?>
<!DOCTYPE svg PUBLIC "-//W3C//DTD SVG 20010904//EN"
 "http://www.w3.org/TR/2001/REC-SVG-20010904/DTD/svg10.dtd">
<svg version="1.0" xmlns="http://www.w3.org/2000/svg"
 width="1024.000000pt" height="1024.000000pt" viewBox="0 0 1024.000000 1024.000000"
 preserveAspectRatio="xMidYMid meet">

<g transform="translate(0.000000,1024.000000) scale(0.100000,-0.100000)"
fill="#000000" stroke="none">
<path d="M0 5120 l0 -5120 5120 0 5120 0 0 5120 0 5120 -5120 0 -5120 0 0
-5120z m3494 2189 c7 -44 6 -47 -23 -58 -16 -7 -39 -23 -51 -36 -37 -39 -30
-96 42 -345 78 -268 117 -408 154 -550 15 -58 31 -109 35 -114 4 -5 37 17 72
48 35 31 68 56 73 56 5 -1 33 -22 62 -48 l53 -48 -105 -100 -104 -101 50 -179
c27 -98 59 -200 70 -227 26 -59 66 -89 129 -95 l49 -5 0 -53 c0 -47 -3 -54
-22 -59 -66 -14 -260 -47 -383 -64 -198 -27 -225 -30 -229 -23 -2 4 -7 28 -10
55 -7 43 -6 47 14 47 64 0 120 55 120 118 0 34 -48 233 -60 245 -4 5 -21 -13
-38 -40 -79 -122 -205 -190 -317 -169 -34 7 -35 8 -35 56 0 50 0 50 33 50 35
0 109 31 134 55 8 9 14 17 12 19 -2 2 -44 -3 -94 -11 -105 -16 -335 -9 -335
11 0 6 8 37 18 69 l17 58 150 3 c137 2 156 5 223 31 45 17 90 43 118 69 l45
41 -16 60 c-79 303 -190 722 -205 775 -10 36 -24 85 -30 110 l-12 45 -19 -50
c-11 -28 -69 -204 -130 -393 -78 -240 -108 -346 -101 -355 7 -8 -25 -114 -108
-356 -65 -190 -121 -361 -124 -382 -9 -53 25 -99 87 -118 l47 -15 0 -53 c0
-42 -4 -55 -17 -60 -23 -9 -645 14 -654 24 -4 5 -4 33 -2 64 l5 56 60 7 c84 8
133 38 165 101 20 37 244 671 250 706 4 20 -1 28 -24 38 -15 7 -49 26 -74 42
l-46 29 18 55 c10 31 21 60 24 65 3 5 34 -1 73 -16 98 -37 102 -38 102 -23 0
14 27 92 166 480 41 114 74 212 74 218 0 24 -114 -9 -168 -49 -50 -36 -60 -73
-35 -125 18 -37 18 -37 -6 -56 -34 -27 -108 -26 -152 4 -46 31 -64 70 -63 142
2 144 116 255 297 290 40 8 180 23 312 35 132 12 281 29 330 39 50 10 93 16
96 12 4 -3 10 -27 13 -52z m4041 -130 c65 -58 65 -52 65 -814 l0 -682 -27 5
c-16 3 -31 10 -35 16 -4 6 -8 315 -8 687 l0 675 -25 50 c-16 32 -38 57 -65 74
-28 17 -40 32 -40 48 l0 22 50 -25 c27 -14 65 -39 85 -56z m-560 -74 c198 -51
327 -177 381 -372 24 -86 30 -308 10 -403 -31 -147 -131 -297 -235 -350 -205
-104 -494 -64 -649 92 -98 98 -141 221 -149 428 -10 244 27 379 132 486 63 64
116 95 205 120 65 18 234 17 305 -1z m-929 -79 c95 -44 134 -126 134 -282 0
-101 -20 -183 -63 -256 -36 -62 -128 -145 -192 -174 -30 -14 -55 -28 -55 -30
0 -3 20 -36 43 -72 67 -102 154 -207 198 -237 34 -24 46 -27 94 -23 l55 5 0
-42 c0 -39 -2 -42 -37 -54 -68 -22 -207 -26 -257 -7 -75 29 -183 161 -264 322
-29 57 -34 62 -77 73 -34 9 -50 19 -65 44 -39 63 -33 67 88 64 94 -2 113 1
159 22 62 27 125 92 144 147 9 24 14 81 14 149 0 99 -3 115 -25 155 -15 26
-41 54 -65 68 -36 21 -49 22 -145 19 -62 -2 -131 -11 -169 -22 l-64 -19 6
-492 c4 -329 9 -500 17 -513 9 -17 20 -21 60 -21 l50 0 0 -38 0 -39 -227 -57
c-126 -31 -231 -56 -235 -56 -5 0 -8 16 -8 35 0 31 4 36 44 54 81 35 81 31 84
471 4 420 -1 542 -25 565 -9 9 -34 15 -64 15 l-50 0 3 36 3 36 100 30 c146 44
471 127 535 137 111 17 201 13 256 -13z m1776 -109 c505 -328 516 -336 538
-367 10 -14 18 -40 18 -56 -1 -28 132 -335 156 -361 6 -7 49 -26 96 -42 121
-43 243 -93 269 -111 44 -30 50 -75 51 -377 0 -241 2 -283 15 -283 8 0 17 -14
21 -36 7 -38 -11 -173 -25 -187 -5 -5 -32 -7 -62 -5 l-53 3 -26 75 c-33 94
-53 133 -98 190 -73 93 -183 169 -307 211 -99 34 -268 34 -370 0 -138 -46
-238 -116 -318 -221 l-27 -35 0 624 0 624 190 -5 c105 -3 189 -4 187 -2 -3 4
-351 54 -369 54 -5 0 -8 86 -8 190 0 105 2 190 5 190 2 0 55 -33 117 -73z
m-2762 -227 c0 -99 -3 -180 -6 -180 -4 0 -24 20 -46 45 -47 53 -84 75 -128 75
-38 0 -38 -6 1 -47 30 -30 32 -38 41 -137 5 -58 7 -167 6 -243 l-3 -137 -69
-47 c-142 -97 -348 -179 -448 -179 -129 0 -226 -136 -122 -170 40 -14 96 -10
299 21 191 28 318 38 361 29 20 -5 50 -22 67 -38 25 -25 31 -42 40 -111 39
-293 -128 -483 -509 -581 -257 -66 -426 -33 -473 93 -14 37 -14 145 0 188 17
50 53 94 115 140 30 23 54 45 54 49 0 4 -17 10 -38 14 -94 15 -135 143 -84
266 12 30 78 97 103 105 27 9 23 18 -18 40 -89 48 -130 152 -120 301 17 236
168 432 414 534 109 45 211 58 299 37 38 -9 81 -17 95 -17 33 0 76 39 84 77
12 51 14 53 50 53 l35 0 0 -180z m3364 -1204 c76 -29 170 -92 230 -155 33 -34
37 -42 26 -56 -19 -23 -27 -19 -87 40 -95 96 -219 145 -363 145 -150 0 -256
-44 -364 -152 -51 -51 -73 -67 -87 -63 -29 9 -23 30 24 83 56 64 115 108 193
143 94 43 127 49 249 45 90 -3 123 -8 179 -30z m-1194 -336 c127 -13 282 -40
298 -53 8 -7 12 -48 12 -143 l0 -134 -27 0 c-25 0 -30 6 -46 60 -19 67 -50
102 -116 132 -55 25 -176 47 -263 48 l-68 0 0 -199 0 -198 80 -7 c143 -12 204
20 216 114 l7 52 36 -7 c20 -4 39 -9 43 -11 5 -3 8 -99 8 -215 l0 -209 -35 0
c-31 0 -35 3 -41 36 -16 84 -91 128 -242 141 l-72 6 2 -239 3 -239 160 0 c176
0 199 6 248 64 24 29 28 41 42 124 6 37 7 38 38 31 18 -3 33 -8 35 -9 4 -4 2
-358 -2 -362 -1 -2 -47 4 -102 12 -165 25 -409 38 -586 31 l-168 -6 0 40 c0
34 3 40 20 40 37 0 81 30 96 65 19 46 20 850 1 905 -13 39 -46 60 -94 60 -32
0 -33 2 -33 40 l0 40 228 0 c125 0 270 -5 322 -10z m-3797 -14 c250 -48 413
-184 513 -429 89 -220 118 -573 65 -822 -64 -307 -265 -534 -561 -637 -90 -31
-102 -33 -240 -33 -187 0 -254 22 -316 106 l-22 30 -30 -43 c-43 -63 -126
-136 -180 -160 -34 -16 -75 -23 -151 -26 -99 -5 -104 -4 -96 14 4 11 16 42 26
69 16 45 22 52 65 67 63 23 111 63 156 129 67 99 68 107 68 660 0 316 4 517
11 555 15 82 53 153 118 226 l56 61 -44 -7 c-86 -13 -225 -90 -288 -157 -55
-60 -133 -225 -118 -249 3 -5 21 -4 41 1 46 13 97 -3 113 -37 15 -34 14 -97
-3 -137 -28 -69 -118 -115 -197 -102 -164 28 -194 220 -74 470 111 231 357
399 662 450 108 18 334 18 426 1z m3207 -19 c0 -23 -6 -35 -22 -42 -55 -25
-61 -43 -219 -665 -61 -239 -115 -451 -120 -471 l-9 -35 -101 -18 c-55 -10
-102 -16 -104 -14 -2 1 -24 86 -50 188 -25 102 -84 329 -131 505 -73 279 -87
323 -111 343 -19 18 -34 22 -55 18 -26 -5 -28 -4 -28 28 l0 34 133 32 c151 36
270 60 298 60 17 0 19 -6 16 -32 -2 -25 -10 -34 -33 -41 -16 -5 -39 -19 -51
-30 -39 -35 -36 -53 61 -502 68 -311 78 -349 86 -334 4 8 17 59 30 114 23 104
64 276 131 553 21 90 39 174 39 187 0 29 -34 55 -72 55 -25 0 -28 4 -28 33 l0
34 118 12 c64 7 124 14 132 16 8 1 32 3 53 4 35 1 37 0 37 -32z m-970 -169 c0
-28 -6 -36 -38 -53 -74 -40 -73 -33 -70 -546 3 -439 4 -458 23 -479 16 -18 26
-21 62 -15 l43 6 0 -39 0 -39 -137 -38 c-76 -20 -174 -47 -218 -60 -44 -13
-83 -21 -87 -18 -5 2 -8 19 -8 36 1 28 7 35 43 52 78 37 77 27 77 547 0 522 4
495 -81 485 -47 -6 -47 -6 -52 26 -3 18 -2 35 2 39 3 3 49 18 101 32 52 14
142 41 200 60 136 44 140 44 140 4z m-670 -211 c68 -34 93 -86 98 -208 2 -53
-1 -120 -7 -150 -28 -127 -122 -255 -234 -319 -32 -18 -57 -35 -57 -39 0 -12
122 -180 170 -234 57 -64 91 -81 152 -74 l48 6 0 -39 c0 -38 0 -38 -62 -59
-83 -28 -162 -36 -217 -21 -77 20 -185 153 -272 333 -17 35 -29 47 -46 47 -50
0 -88 33 -95 85 -3 19 3 20 97 20 89 0 107 3 160 28 112 52 155 130 155 277 0
107 -21 172 -67 207 -31 24 -48 29 -114 32 -73 3 -177 -14 -243 -39 l-27 -10
3 -484 c3 -468 4 -485 23 -506 17 -19 27 -22 73 -17 l53 6 -3 -42 c-3 -36 -7
-42 -33 -49 -42 -12 -448 -108 -457 -108 -5 0 -8 17 -8 39 0 35 3 39 29 44 17
4 45 20 63 36 l33 29 3 486 c3 482 2 486 -18 506 -16 16 -31 21 -58 18 -36 -3
-37 -2 -40 35 -2 20 -1 37 1 37 18 0 226 47 398 90 309 76 406 84 499 37z"/>
<path d="M6759 7020 c-64 -8 -121 -48 -148 -104 -44 -95 -53 -411 -16 -592 20
-96 75 -204 124 -245 93 -77 264 -73 339 8 61 66 88 208 79 408 -12 270 -79
432 -204 495 -57 28 -110 37 -174 30z"/>
<path d="M7870 6361 l0 -149 98 -7 c113 -8 299 -43 426 -80 49 -14 91 -24 93
-21 3 2 -26 78 -64 168 -39 90 -75 177 -82 194 -12 31 -12 31 -109 37 -53 4
-157 7 -229 7 l-133 0 0 -149z"/>
<path d="M8063 5705 c-110 -30 -202 -89 -258 -165 -45 -61 -44 -68 3 -31 47
38 160 93 237 116 82 25 275 26 363 2 80 -22 161 -60 217 -103 67 -51 54 -24
-22 45 -71 66 -156 113 -243 136 -69 19 -228 18 -297 0z"/>
<path d="M8827 5603 c-9 -8 -9 -247 -1 -256 8 -7 64 13 64 23 0 5 -4 11 -9 14
-5 4 -8 56 -6 116 2 108 2 110 -20 110 -12 0 -25 -3 -28 -7z"/>
<path d="M4579 6651 c-115 -37 -204 -123 -246 -239 -30 -80 -43 -260 -24 -330
15 -54 62 -107 108 -123 80 -26 216 14 288 86 l38 38 -7 286 c-5 157 -10 289
-12 293 -9 14 -87 8 -145 -11z"/>
<path d="M4685 5473 c-329 -70 -389 -88 -419 -124 -33 -39 -36 -117 -7 -165
32 -52 81 -69 201 -69 201 1 366 80 416 201 21 49 18 107 -7 138 -19 24 -26
26 -92 25 -40 -1 -81 -3 -92 -6z"/>
<path d="M3087 4920 l-38 -5 1 -709 c0 -653 2 -713 18 -745 22 -47 71 -71 142
-71 188 0 356 127 429 324 81 217 80 568 -1 811 -64 190 -174 318 -318 371
-52 18 -177 31 -233 24z"/>
</g>
</svg>
